<svg width="31" height="27" viewBox="0 0 31 27" fill="none" xmlns="http://www.w3.org/2000/svg">
<path d="M25.1182 8.02635H8.71477V1H19.0438C19.8896 1 20.6714 1.44471 21.184 2.19435L25.1182 8.02635Z" fill="white" stroke="#231815" stroke-width="1.5" stroke-miterlimit="10"/>
<path d="M15.4556 5.14212L13.4948 2.23247C12.9694 1.45741 12.1492 1 11.2778 1H3.7809C2.24308 1 1 2.39765 1 4.11294V22.9685C1 24.6965 2.24308 26.0814 3.7809 26.0814H27.2968C28.8346 26.0814 30.0777 24.6838 30.0777 22.9685V8.53459C30.0777 6.80659 28.8346 5.42165 27.2968 5.42165H15.9682C15.7759 5.42165 15.5837 5.32 15.4684 5.14212H15.4556Z" fill="white" stroke="#231815" stroke-width="1.5" stroke-miterlimit="10"/>
<path d="M11.3419 15.1798H19.7358" stroke="#231815" stroke-width="1.5" stroke-miterlimit="10"/>
<path d="M15.5453 19.6268V10.72" stroke="#231815" stroke-width="1.5" stroke-miterlimit="10"/>
</svg>
