<svg width="21" height="21" viewBox="0 0 21 21" fill="none" xmlns="http://www.w3.org/2000/svg">
<path d="M19.2117 21H14.2026C13.2216 21 12.4142 20.1753 12.4142 19.1596V14.4717C12.4142 14.1765 12.1972 13.9334 11.9281 13.9334H9.07193C8.80281 13.9334 8.58578 14.1765 8.58578 14.4717V19.1596C8.58578 20.1753 7.7871 21 6.79744 21H1.78834C0.798677 21 0 20.1753 0 19.1596V10.6519C0 10.1571 0.199669 9.67962 0.538239 9.33237L9.34973 0.468789C9.9661 -0.156263 11.0339 -0.156263 11.659 0.468789L20.4704 9.33237C20.809 9.67962 21.0087 10.1571 21.0087 10.6519V19.1683C21.0087 20.184 20.21 21.0087 19.2203 21.0087L19.2117 21ZM9.07193 12.6399H11.9281C12.9177 12.6399 13.7164 13.4647 13.7164 14.4804V19.1683C13.7164 19.4634 13.9334 19.7065 14.2026 19.7065H19.2117C19.4808 19.7065 19.6978 19.4634 19.6978 19.1683V10.6519C19.6978 10.5043 19.637 10.3568 19.5415 10.2526L10.7301 1.389C10.5651 1.22406 10.4349 1.22406 10.2699 1.389L1.45845 10.2526C1.35428 10.3568 1.30219 10.4957 1.30219 10.6519V19.1683C1.30219 19.4634 1.51922 19.7065 1.78834 19.7065H6.79744C7.06656 19.7065 7.28359 19.4634 7.28359 19.1683V14.4804C7.28359 13.4647 8.08227 12.6399 9.07193 12.6399V12.6399Z" fill="currentColor"/>
<defs>
<linearGradient id="paint0_linear_185_112" x1="10.5043" y1="0.842084" x2="10.5043" y2="19.7412" gradientUnits="userSpaceOnUse">
<stop stop-color="#FF0598"/>
<stop offset="1" stop-color="#FF0000"/>
</linearGradient>
</defs>
</svg>
