<svg width="21" height="21" viewBox="0 0 21 21" fill="none" xmlns="http://www.w3.org/2000/svg">
<g clip-path="url(#clip0_174_114)">
<path d="M19.63 13.09L17.71 11.98C17.96 10.74 17.9 9.45 17.53 8.24L19.28 7.23C19.41 7.15 19.46 6.98 19.38 6.85L17.6 3.76C17.52 3.63 17.35 3.58 17.22 3.66L15.29 4.77C14.31 3.9 13.17 3.33 11.97 3.06V1.03C11.97 0.88 11.84 0.75 11.69 0.75H8.13C7.98 0.75 7.85 0.88 7.85 1.03V3.25C6.77 3.61 5.74 4.22 4.88 5.08C4.82 5.14 4.76 5.21 4.7 5.27L2.94 4.26C2.81 4.18 2.63 4.23 2.56 4.36L0.789999 7.45C0.709999 7.58 0.759999 7.76 0.889999 7.83L2.81 8.94C2.56 10.18 2.62 11.47 2.99 12.68L1.24 13.69C1.11 13.77 1.06 13.94 1.14 14.07L2.92 17.16C3 17.29 3.17 17.34 3.3 17.26L5.23 16.15C6.21 17.02 7.35 17.59 8.55 17.86V19.89C8.55 20.04 8.68 20.17 8.83 20.17H12.39C12.54 20.17 12.67 20.04 12.67 19.89V17.67C13.75 17.31 14.78 16.7 15.64 15.84C15.7 15.78 15.76 15.71 15.82 15.65L17.58 16.66C17.71 16.74 17.89 16.69 17.96 16.56L19.74 13.47C19.82 13.34 19.77 13.16 19.64 13.09H19.63Z" fill="white" stroke="#231815" stroke-width="1.5" stroke-linecap="round" stroke-linejoin="round"/>
<path d="M10.26 13.86C12.1378 13.86 13.66 12.3378 13.66 10.46C13.66 8.58223 12.1378 7.06 10.26 7.06C8.38223 7.06 6.86 8.58223 6.86 10.46C6.86 12.3378 8.38223 13.86 10.26 13.86Z" fill="white" stroke="#231815" stroke-width="1.5" stroke-linecap="round" stroke-linejoin="round"/>
</g>
<defs>
<clipPath id="clip0_174_114">
<rect width="20.52" height="20.92" fill="white"/>
</clipPath>
</defs>
</svg>
